<?xml version="1.0" encoding="UTF-8"?>
<svg version="1.1" xmlns="http://www.w3.org/2000/svg" width="192" height="192">
<path d="M0 0 C1.69071625 -0.01052147 1.69071625 -0.01052147 3.41558838 -0.02125549 C4.64275574 -0.01361176 5.8699231 -0.00596802 7.13427734 0.00190735 C8.43395447 -0.00174332 9.73363159 -0.00539398 11.07269287 -0.00915527 C14.63056945 -0.01854658 18.18817008 -0.00915383 21.74602509 0.00417686 C25.47261079 0.01550929 29.19918326 0.01138246 32.92578125 0.00942993 C39.18347674 0.00854752 45.44106378 0.0196162 51.69873047 0.03804016 C58.92932594 0.059207 66.15976258 0.06271735 73.39038277 0.0564782 C80.35132058 0.05077969 87.31220256 0.05643594 94.27313232 0.06765175 C97.23314447 0.07229129 100.19312241 0.07317438 103.15313721 0.0710659 C107.28755993 0.06882921 111.42176102 0.08330526 115.55615234 0.0995636 C117.39690338 0.09584747 117.39690338 0.09584747 119.27484131 0.09205627 C120.40198547 0.09914108 121.52912964 0.10622589 122.69042969 0.11352539 C123.66748871 0.11557826 124.64454773 0.11763113 125.6512146 0.11974621 C128.54876605 0.39344927 130.68868829 1.22258082 133.34521484 2.3742218 C134.96669366 2.50977952 136.59337837 2.59303644 138.22021484 2.6242218 C143.82353523 3.09116517 146.65835488 5.27110345 150.34521484 9.3742218 C151.68815965 11.03315363 153.02266172 12.69898785 154.34521484 14.3742218 C155.52083984 15.3023468 155.52083984 15.3023468 156.72021484 16.2492218 C162.73375932 21.11732924 165.8760111 24.90034487 166.72802734 32.7492218 C165.84078788 38.83314955 162.43883031 42.49819408 157.86755371 46.27308655 C149.46751714 53.26498567 142.5402659 59.36211802 141.28954315 70.66794205 C141.0326298 76.51040719 141.16396195 82.29824984 141.37646484 88.1398468 C141.39713855 90.67419401 141.40889607 93.20862792 141.41223145 95.74305725 C141.43943241 101.68650322 141.54829058 107.62458704 141.70109606 113.56578898 C141.92113513 122.29297164 141.99406985 131.02163423 142.07167816 139.75104904 C142.12834492 146.0137592 142.20594221 152.27356563 142.35021973 158.53492737 C142.3714238 159.68329575 142.39262787 160.83166412 142.41447449 162.01483154 C142.45419522 164.14891829 142.50546123 166.28283657 142.57087708 168.41629028 C142.68627993 175.76277437 141.46274688 180.19792375 137.34521484 186.3742218 C136.68521484 186.3742218 136.02521484 186.3742218 135.34521484 186.3742218 C135.01521484 187.3642218 134.68521484 188.3542218 134.34521484 189.3742218 C128.69938891 193.52353205 122.18338493 192.81747859 115.49023438 192.81001282 C114.1952301 192.82008865 112.90022583 192.83016449 111.565979 192.84054565 C108.02454493 192.86697052 104.48332851 192.87407587 100.94180536 192.87599301 C98.7262043 192.87812981 96.51065806 192.88454268 94.29507065 192.89248466 C86.55702977 192.92021255 78.8191436 192.93249332 71.08105469 192.93013 C63.88150304 192.92832802 56.68262599 192.95998324 49.48324502 193.00736099 C43.29023685 193.04665567 37.09744859 193.06267889 30.90431678 193.06076378 C27.21060871 193.06000084 23.51750066 193.06844063 19.82391739 193.10029793 C15.70180772 193.13488321 11.58119956 193.1210609 7.45898438 193.10298157 C6.24417389 193.11984009 5.0293634 193.13669861 3.77774048 193.15406799 C-3.84412154 193.06917909 -8.20338509 191.77437853 -13.65478516 186.3742218 C-14.83041016 185.2604718 -14.83041016 185.2604718 -16.02978516 184.1242218 C-20.82203382 176.01426252 -19.94216086 165.73223922 -19.91357422 156.62812805 C-19.9162896 155.16506273 -19.91985358 153.70199878 -19.92419434 152.23893738 C-19.93325561 148.29266841 -19.92980012 144.34650486 -19.92343616 140.40023422 C-19.91834355 136.25427229 -19.92307663 132.10831889 -19.9262085 127.96235657 C-19.92983868 121.00229791 -19.92507398 114.0422818 -19.91552734 107.08222961 C-19.90464462 99.05581914 -19.90817087 91.02951031 -19.91918015 83.0031023 C-19.9282801 76.08984163 -19.9295251 69.17661141 -19.92430282 62.26334667 C-19.92119797 58.14396691 -19.92073268 54.0246348 -19.92737579 49.90525818 C-19.93318815 46.03098459 -19.92908181 42.156841 -19.91758728 38.28258133 C-19.91496137 36.86772502 -19.91567002 35.4528576 -19.92011261 34.03800583 C-19.98075088 12.75021751 -19.98075088 12.75021751 -14.34228516 6.9367218 C-13.48183594 6.0105304 -13.48183594 6.0105304 -12.60400391 5.06562805 C-8.53187348 1.53209604 -5.42396106 -0.00093119 0 0 Z " fill="#CBD5DC" transform="translate(23.65478515625,-0.3742218017578125)"/>
<path d="M0 0 C4.75085867 3.96372525 9.23613112 8.09794782 13.58984375 12.4921875 C14.47392662 13.37839279 14.47392662 13.37839279 15.37586975 14.28250122 C17.23213727 16.14430404 19.08487085 18.00957745 20.9375 19.875 C22.20614672 21.14867011 23.4750249 22.42210971 24.74414062 23.6953125 C27.83210554 26.79422043 30.91690929 29.89624301 34 33 C28.19861308 40.10512006 21.65610323 46.4701862 15.1640625 52.93359375 C13.9168849 54.17890345 12.66992999 55.42443621 11.42318726 56.67018127 C8.16051895 59.92905366 4.89485749 63.18491018 1.62854004 66.44012451 C-1.71171062 69.77009779 -5.04908931 73.10294673 -8.38671875 76.43554688 C-14.92168893 82.95983139 -21.45982831 89.48092996 -28 96 C-30.90543872 94.68623083 -32.96661059 93.27943508 -35.20800781 91.01904297 C-35.80832825 90.41857147 -36.40864868 89.81809998 -37.02716064 89.19943237 C-37.66272888 88.55354156 -38.29829712 87.90765076 -38.953125 87.2421875 C-39.94345734 86.24761032 -39.94345734 86.24761032 -40.95379639 85.23294067 C-43.05727824 83.11828168 -45.15369142 80.99676788 -47.25 78.875 C-48.67662261 77.43834443 -50.10370072 76.00214102 -51.53125 74.56640625 C-55.02613661 71.04949196 -58.51470062 67.52641453 -62 64 C-60.36934355 59.86374991 -57.36776548 57.10043401 -54.26513672 54.03808594 C-53.38687729 53.15938843 -53.38687729 53.15938843 -52.49087524 52.26293945 C-50.55851644 50.33197161 -48.61917484 48.40818053 -46.6796875 46.484375 C-45.33689544 45.14531389 -43.99454487 43.80580991 -42.65261841 42.46588135 C-39.12246283 38.94335571 -35.58634194 35.42687797 -32.0489502 31.91162109 C-28.43917149 28.32231449 -24.83505985 24.72732744 -21.23046875 21.1328125 C-14.15918442 14.08296682 -7.08158587 7.03949663 0 0 Z " fill="#FECB4D" transform="translate(126,32)"/>
<path d="M0 0 C0.27466706 3.96404115 0.47268038 7.92432203 0.60424805 11.89575195 C0.68594152 13.89927837 0.82582455 15.90016096 0.96679688 17.90039062 C1.23295536 27.50629247 1.23295536 27.50629247 -2.30419922 31.79150391 C-5.10458042 34.08272489 -7.95948233 36.04325638 -11 38 C-12.85066405 39.47856474 -14.68648073 40.97610401 -16.5 42.5 C-17.40621094 43.24121094 -18.31242187 43.98242188 -19.24609375 44.74609375 C-21.09337522 46.25798227 -22.93971875 47.77101749 -24.78515625 49.28515625 C-29.0452257 52.77829336 -33.31313967 56.25844018 -37.625 59.6875 C-41.53258423 62.80233152 -45.39860229 65.96450494 -49.25170898 69.14624023 C-50.75091388 70.38236389 -52.25303947 71.61495373 -53.75805664 72.84399414 C-56.82342848 75.35048416 -59.84178449 77.85412755 -62.75390625 80.5390625 C-69.69218496 86.80816712 -77.060149 88.25347282 -86 90 C-86.6496875 90.18691406 -87.299375 90.37382812 -87.96875 90.56640625 C-92.01106102 91.42928418 -96.21021192 91.40849685 -100.33203125 91.60546875 C-104.29534093 91.74374845 -104.29534093 91.74374845 -108 93 C-109.8521563 93.09584979 -111.70787153 93.12983606 -113.5625 93.125 C-114.55378906 93.12757813 -115.54507813 93.13015625 -116.56640625 93.1328125 C-119 93 -119 93 -120 92 C-120.63755299 84.44744914 -119.9601824 77.97757279 -117 71 C-113.02992844 71.27698174 -111.27610788 71.76684223 -108.1875 74.375 C-106 77 -106 77 -105 80 C-93.53560761 77.74806578 -82.0908039 74.57544283 -71.8203125 68.91796875 C-70 68 -70 68 -68 68 C-67.7952002 67.47053772 -67.59040039 66.94107544 -67.37939453 66.39556885 C-65.41768167 62.98869858 -62.69824716 60.42039989 -59.9296875 57.67089844 C-59.30837952 57.04608582 -58.68707153 56.42127319 -58.04693604 55.77752686 C-55.99462306 53.71642033 -53.9350916 51.6627046 -51.875 49.609375 C-50.44746084 48.18048885 -49.02021871 46.75130591 -47.59326172 45.32183838 C-44.60382889 42.32945779 -41.6108099 39.34072313 -38.61523438 36.35449219 C-34.76801052 32.51868321 -30.92986132 28.673939 -27.09432983 24.82644272 C-24.15037089 21.87527344 -21.20168569 18.92886374 -18.25152588 15.98389435 C-16.83381134 14.56751753 -15.41759076 13.14964377 -14.00286865 11.73027802 C-12.03013601 9.75249153 -10.05115017 7.78118771 -8.0703125 5.81152344 C-7.48219788 5.21936035 -6.89408325 4.62719727 -6.28814697 4.01708984 C-2.22853056 0 -2.22853056 0 0 0 Z " fill="#69777F" transform="translate(166,61)"/>
<path d="M0 0 C4.64236968 3.87917892 9.04470446 7.90531118 13.30078125 12.203125 C14.14445503 13.0489212 14.14445503 13.0489212 15.00517273 13.9118042 C16.77667559 15.68883776 18.54464598 17.46933719 20.3125 19.25 C21.51604178 20.45856667 22.71981593 21.66690198 23.92382812 22.875 C26.11642642 25.07572547 28.3077588 27.27769262 30.49731445 29.48144531 C31.99609753 30.98973194 33.49645763 32.49645763 35 34 C27.47144105 38.33606876 19.74451284 41.2754765 11.5 43.9375 C10.53239746 44.255979 9.56479492 44.57445801 8.56787109 44.90258789 C7.64828613 45.19125732 6.72870117 45.47992676 5.78125 45.77734375 C4.95689453 46.03765381 4.13253906 46.29796387 3.28320312 46.56616211 C0.77981375 47.04183821 -0.64926557 46.9682756 -3 46 C-3.309375 45.21625 -3.61875 44.4325 -3.9375 43.625 C-5.3048403 40.24686515 -6.75959259 39.54305115 -10 38 C-12.19130534 37.30420546 -12.19130534 37.30420546 -14 37 C-14.33 37.66 -14.66 38.32 -15 39 C-18.1257396 38.89037184 -21.25024781 38.75968759 -24.375 38.625 C-25.26445313 38.5940625 -26.15390625 38.563125 -27.0703125 38.53125 C-27.92109375 38.49257812 -28.771875 38.45390625 -29.6484375 38.4140625 C-30.43395996 38.3826416 -31.21948242 38.3512207 -32.02880859 38.31884766 C-34 38 -34 38 -36 36 C-36.25 33 -36.25 33 -36 30 C-34 28 -34 28 -31.66162109 27.77294922 C-30.70852051 27.78342285 -29.75541992 27.79389648 -28.7734375 27.8046875 C-27.2265625 27.81435547 -27.2265625 27.81435547 -25.6484375 27.82421875 C-24.02808594 27.84935547 -24.02808594 27.84935547 -22.375 27.875 C-21.28703125 27.88402344 -20.1990625 27.89304687 -19.078125 27.90234375 C-16.38519848 27.92596591 -13.69270745 27.95890444 -11 28 C-10.86722656 27.37351562 -10.73445313 26.74703125 -10.59765625 26.1015625 C-10.42105469 25.28429687 -10.24445312 24.46703125 -10.0625 23.625 C-9.80146484 22.40683594 -9.80146484 22.40683594 -9.53515625 21.1640625 C-9 19 -9 19 -8 17 C-8.74161377 17.01571045 -9.48322754 17.0314209 -10.24731445 17.04760742 C-13.60229896 17.10990714 -16.95716186 17.14897507 -20.3125 17.1875 C-22.06336914 17.22520508 -22.06336914 17.22520508 -23.84960938 17.26367188 C-24.96787109 17.27333984 -26.08613281 17.28300781 -27.23828125 17.29296875 C-28.26993408 17.3086792 -29.30158691 17.32438965 -30.36450195 17.34057617 C-33 17 -33 17 -34.83666992 15.63793945 C-36.49954801 13.29664898 -36.42066835 11.80445566 -36 9 C-34.9050293 7.36206055 -34.9050293 7.36206055 -33 6 C-29.90551758 5.65942383 -29.90551758 5.65942383 -26.14453125 5.70703125 C-25.48289474 5.71127609 -24.82125824 5.71552094 -24.13957214 5.71989441 C-22.0301309 5.73666307 -19.92165154 5.77430901 -17.8125 5.8125 C-16.38087319 5.82754932 -14.94923138 5.8412373 -13.51757812 5.85351562 C-10.01140712 5.8865597 -6.50579746 5.93832833 -3 6 C-2.690625 5.195625 -2.38125 4.39125 -2.0625 3.5625 C-1 1 -1 1 0 0 Z " fill="#D89E81" transform="translate(63,95)"/>
<path d="M0 0 C0.87825943 -0.00043808 1.75651886 -0.00087616 2.66139221 -0.00132751 C5.56721145 0.00076417 8.47245526 0.02411311 11.37817383 0.04760742 C13.39170517 0.05320203 15.40524059 0.05747276 17.41877747 0.06047058 C22.72072608 0.07193001 28.0224285 0.10140672 33.32427979 0.13458252 C38.73348663 0.1652597 44.14273321 0.17897089 49.55200195 0.1940918 C60.16734455 0.22627529 70.78250435 0.27748498 81.39770508 0.34057617 C79.12820229 5.0914818 77.10434095 8.693574 72.39770508 11.34057617 C66.30064701 12.3682898 60.26751486 12.22919591 54.10083008 12.12963867 C52.30198765 12.12419198 50.50313533 12.12141493 48.70428467 12.1211853 C44.94485592 12.11347438 41.18660181 12.08258848 37.42749023 12.03344727 C32.60630195 11.97100536 27.78623377 11.95260105 22.96467972 11.94965553 C19.25517808 11.94495955 15.54591511 11.92418632 11.8365097 11.89777756 C10.05829559 11.88571147 8.28005536 11.87701177 6.50180817 11.87172318 C4.02167227 11.8605299 1.54260917 11.82941403 -0.93725586 11.79223633 C-1.67288254 11.79202484 -2.40850922 11.79181335 -3.16642761 11.79159546 C-6.09868937 11.72978587 -8.11657425 11.68133558 -10.55792236 9.96859741 C-12.06778374 7.61494845 -12.01280179 6.07728864 -11.60229492 3.34057617 C-8.45102667 -0.65853985 -4.73519596 -0.06147592 0 0 Z " fill="#9BABB6" transform="translate(38.602294921875,36.659423828125)"/>
<path d="M0 0 C4.83298806 4.02748053 9.38110004 8.24379413 13.80859375 12.7109375 C14.72597069 13.63043686 14.72597069 13.63043686 15.66188049 14.56851196 C17.58947559 16.50164564 19.51353928 18.43824987 21.4375 20.375 C22.75432404 21.69684699 24.07137926 23.01846372 25.38867188 24.33984375 C28.59512373 27.55724299 31.79841629 30.77775681 35 34 C34.05488516 35.10433586 33.10952431 36.20846118 32.1640625 37.3125 C31.37443115 38.23482422 31.37443115 38.23482422 30.56884766 39.17578125 C28.46963046 41.61670109 26.46774399 43.9218998 24 46 C20.61795498 45.67809971 18.94715467 44.31557317 16.60839844 41.94897461 C15.9680365 41.30838608 15.32767456 40.66779755 14.66790771 40.00779724 C13.98859192 39.31299759 13.30927612 38.61819794 12.609375 37.90234375 C11.90476135 37.19348526 11.20014771 36.48462677 10.47418213 35.75428772 C8.22565215 33.4889672 5.98777762 31.21343792 3.75 28.9375 C2.22725292 27.39970665 0.70382346 25.86258869 -0.8203125 24.32617188 C-4.5548281 20.55858198 -8.2806485 16.78255735 -12 13 C-11.07497288 11.72577041 -10.14413534 10.45575786 -9.2109375 9.1875 C-8.69321777 8.47980469 -8.17549805 7.77210937 -7.64208984 7.04296875 C-5.37735542 4.2253509 -2.86938614 2.18619896 0 0 Z " fill="#C8D1D8" transform="translate(143,15)"/>
<path d="M0 0 C6.22664584 1.62763387 9.74677052 6.82872183 13.5703125 11.671875 C14.3540625 12.290625 15.1378125 12.909375 15.9453125 13.546875 C20.96076059 17.60699965 24.7102834 21.05810815 25.6953125 27.671875 C25.92432571 32.86020871 24.67815662 35.55608143 21.5703125 39.671875 C20.2503125 40.661875 18.9303125 41.651875 17.5703125 42.671875 C6.3503125 31.451875 -4.8696875 20.231875 -16.4296875 8.671875 C-8.14208856 -0.99699044 -8.14208856 -0.99699044 0 0 Z " fill="#E9596E" transform="translate(164.4296875,2.328125)"/>
<path d="M0 0 C1.22133636 0.00444122 2.44267273 0.00888245 3.70101929 0.01345825 C4.37430771 0.0131662 5.04759613 0.01287415 5.74128723 0.01257324 C7.97067067 0.01396856 10.19972145 0.02953887 12.42904663 0.04519653 C13.97318336 0.04892595 15.51732246 0.05177326 17.0614624 0.05377197 C21.12873856 0.06141404 25.19587224 0.08106736 29.26309204 0.10317993 C33.41214063 0.12362607 37.5612122 0.13277105 41.71029663 0.14285278 C49.85359124 0.16431279 57.99676997 0.19845555 66.13998413 0.24050903 C64.16114943 4.38662549 62.18430245 7.87590903 58.13998413 10.24050903 C53.51815445 11.097353 48.96834754 10.98600492 44.28060913 10.89675903 C42.92634929 10.89063698 41.57207682 10.88688997 40.21780396 10.88540649 C37.38977309 10.8762318 34.56289145 10.84749974 31.73519897 10.80300903 C28.10783751 10.74622779 24.48137476 10.72456169 20.85361099 10.71564484 C18.06205242 10.70734278 15.27067576 10.68771702 12.4792099 10.66389465 C10.49052474 10.64695003 8.50180722 10.6339536 6.51309204 10.6210022 C5.31134338 10.60178711 4.10959473 10.58257202 2.87142944 10.56277466 C1.27974945 10.54229065 1.27974945 10.54229065 -0.34408569 10.52139282 C-2.86001587 10.24050903 -2.86001587 10.24050903 -4.86001587 8.24050903 C-5.11001587 5.24050903 -5.11001587 5.24050903 -4.86001587 2.24050903 C-2.86001587 0.24050903 -2.86001587 0.24050903 0 0 Z " fill="#99AAB4" transform="translate(31.860015869140625,58.759490966796875)"/>
<path d="M0 0 C1.41112312 0.00022659 1.41112312 0.00022659 2.85075378 0.00045776 C3.86333755 0.01078033 4.87592133 0.02110291 5.91918945 0.03173828 C7.47764336 0.03598312 7.47764336 0.03598312 9.06758118 0.04031372 C12.38932767 0.05151797 15.71080556 0.07662314 19.0324707 0.10205078 C21.28311785 0.11208026 23.53376923 0.12120616 25.78442383 0.12939453 C31.30469793 0.15145808 36.82481513 0.18493807 42.3449707 0.22705078 C39.98254044 4.98346902 38.17099748 8.60755764 33.3449707 11.22705078 C27.90016903 12.32568551 22.27138523 12.06499295 16.74633789 11.91992188 C14.08811145 11.85187519 11.43367965 11.83791408 8.7746582 11.83251953 C7.08451577 11.81352939 5.39440415 11.79150078 3.7043457 11.76611328 C2.91058533 11.75963776 2.11682495 11.75316223 1.29901123 11.74649048 C-4.12633653 11.58205235 -4.12633653 11.58205235 -6.65405273 9.88476562 C-8.23479045 7.26690975 -8.03454489 5.19992294 -7.6550293 2.22705078 C-4.45457454 0.09341428 -3.66873493 -0.0196715 0 0 Z " fill="#9BABB5" transform="translate(34.655029296875,79.77294921875)"/>
<path d="M0 0 C1.29873047 0.00966797 2.59746094 0.01933594 3.93554688 0.02929688 C5.30729764 0.0543629 6.67904243 0.07975774 8.05078125 0.10546875 C9.43423049 0.12051855 10.81769526 0.13420645 12.20117188 0.14648438 C15.58893332 0.18189652 18.97591264 0.23128821 22.36328125 0.29296875 C21.88597287 1.75191135 21.40637083 3.21010371 20.92578125 4.66796875 C20.65894531 5.48007813 20.39210938 6.2921875 20.1171875 7.12890625 C19.36328125 9.29296875 19.36328125 9.29296875 18.36328125 11.29296875 C14.25924762 11.37990917 10.15544996 11.43334024 6.05078125 11.48046875 C4.29991211 11.51817383 4.29991211 11.51817383 2.51367188 11.55664062 C1.39541016 11.56630859 0.27714844 11.57597656 -0.875 11.5859375 C-1.90665283 11.60164795 -2.93830566 11.6173584 -4.0012207 11.63354492 C-6.63671875 11.29296875 -6.63671875 11.29296875 -8.47338867 9.9309082 C-10.13626676 7.58961773 -10.0573871 6.09742441 -9.63671875 3.29296875 C-7.09860162 -0.45691626 -4.2730996 -0.05597947 0 0 Z " fill="#9BABB6" transform="translate(36.63671875,100.70703125)"/>
<path d="M0 0 C4.83298806 4.02748053 9.38110004 8.24379413 13.80859375 12.7109375 C14.72597069 13.63043686 14.72597069 13.63043686 15.66188049 14.56851196 C17.58947559 16.50164564 19.51353928 18.43824987 21.4375 20.375 C22.75432404 21.69684699 24.07137926 23.01846372 25.38867188 24.33984375 C28.59512373 27.55724299 31.79841629 30.77775681 35 34 C34.01 35.32 33.02 36.64 32 38 C29.04734888 36.67005617 26.97649784 35.22220684 24.70019531 32.92724609 C24.07985413 32.30675385 23.45951294 31.6862616 22.82037354 31.04696655 C22.16293152 30.37920197 21.5054895 29.71143738 20.828125 29.0234375 C20.1457074 28.33819 19.46328979 27.6529425 18.76019287 26.94692993 C16.58538402 24.76094155 14.41763928 22.56809571 12.25 20.375 C10.7752001 18.89016745 9.29994494 17.40578694 7.82421875 15.921875 C4.21084552 12.2864709 0.60379147 8.64490176 -3 5 C-1.125 1.125 -1.125 1.125 0 0 Z " fill="#9AABB5" transform="translate(143,15)"/>
<path d="M0 0 C2.95265112 1.32994383 5.02350216 2.77779316 7.29980469 5.07275391 C7.92014587 5.69324615 8.54048706 6.3137384 9.17962646 6.95303345 C10.16578949 7.95468033 10.16578949 7.95468033 11.171875 8.9765625 C11.8542926 9.66181 12.53671021 10.3470575 13.23980713 11.05307007 C15.41461598 13.23905845 17.58236072 15.43190429 19.75 17.625 C21.2247999 19.10983255 22.70005506 20.59421306 24.17578125 22.078125 C27.78915448 25.7135291 31.39620853 29.35509824 35 33 C34.34 34.32 33.68 35.64 33 37 C29.62704442 36.4165115 27.99994201 35.36898894 25.60839844 32.94897461 C24.9680365 32.30838608 24.32767456 31.66779755 23.66790771 31.00779724 C22.98859192 30.31299759 22.30927612 29.61819794 21.609375 28.90234375 C20.90476135 28.19348526 20.20014771 27.48462677 19.47418213 26.75428772 C17.22565215 24.4889672 14.98777762 22.21343792 12.75 19.9375 C11.22725292 18.39970665 9.70382346 16.86258869 8.1796875 15.32617188 C4.4451719 11.55858198 0.7193515 7.78255735 -3 4 C-2.01 2.68 -1.02 1.36 0 0 Z " fill="#9BABB6" transform="translate(134,24)"/>
<path d="M0 0 C0.33 0.66 0.66 1.32 1 2 C1.97582031 1.96519531 2.95164063 1.93039063 3.95703125 1.89453125 C5.22933594 1.86746094 6.50164062 1.84039062 7.8125 1.8125 C9.07707031 1.77769531 10.34164062 1.74289063 11.64453125 1.70703125 C15 2 15 2 16.96484375 3.31640625 C18 5 18 5 17.75 8.125 C17 11 17 11 16 12 C13.85441173 12.08775605 11.70595579 12.10695219 9.55859375 12.09765625 C8.25341797 12.09443359 6.94824219 12.09121094 5.60351562 12.08789062 C4.2148431 12.07953401 2.82617123 12.07106905 1.4375 12.0625 C0.04492344 12.05748666 -1.34765481 12.05292347 -2.74023438 12.04882812 C-6.1601987 12.03699434 -9.58007844 12.0205088 -13 12 C-9.97322967 8.95569588 -6.93560698 5.99518569 -3.6875 3.1875 C-2.99011719 2.58292969 -2.29273437 1.97835937 -1.57421875 1.35546875 C-1.05472656 0.90816406 -0.53523438 0.46085937 0 0 Z " fill="#99AAB5" transform="translate(126,121)"/>
<path d="M0 0 C0.95310059 0.01047363 1.90620117 0.02094727 2.88818359 0.03173828 C4.43505859 0.04140625 4.43505859 0.04140625 6.01318359 0.05126953 C7.63353516 0.07640625 7.63353516 0.07640625 9.28662109 0.10205078 C10.37458984 0.11107422 11.46255859 0.12009766 12.58349609 0.12939453 C15.27629758 0.1530156 17.96898644 0.18888746 20.66162109 0.22705078 C19.67162109 3.85705078 18.68162109 7.48705078 17.66162109 11.22705078 C14.36918629 11.11351855 11.07819778 10.98676743 7.78662109 10.85205078 C6.84947266 10.82111328 5.91232422 10.79017578 4.94677734 10.75830078 C4.05087891 10.71962891 3.15498047 10.68095703 2.23193359 10.64111328 C1.4045166 10.60969238 0.57709961 10.57827148 -0.27539062 10.54589844 C-2.33837891 10.22705078 -2.33837891 10.22705078 -4.33837891 8.22705078 C-4.58837891 5.22705078 -4.58837891 5.22705078 -4.33837891 2.22705078 C-2.33837891 0.22705078 -2.33837891 0.22705078 0 0 Z " fill="#99AAB5" transform="translate(31.33837890625,122.77294921875)"/>
<path d="M0 0 C1.06723961 3.46222615 1.10173486 6.64039266 1.0625 10.25 C1.05347656 11.32765625 1.04445313 12.4053125 1.03515625 13.515625 C1.02355469 14.33546875 1.01195313 15.1553125 1 16 C3.64 16.33 6.28 16.66 9 17 C9 17.33 9 17.66 9 18 C4.89596637 18.08694042 0.79216871 18.14037149 -3.3125 18.1875 C-5.06336914 18.22520508 -5.06336914 18.22520508 -6.84960938 18.26367188 C-7.96787109 18.27333984 -9.08613281 18.28300781 -10.23828125 18.29296875 C-11.26993408 18.3086792 -12.30158691 18.32438965 -13.36450195 18.34057617 C-16 18 -16 18 -17.83666992 16.6730957 C-19.63830964 14.08198616 -19.39024834 12.05694536 -19 9 C-15.31912647 6.54608431 -12.55644412 6.77197241 -8.3125 6.875 C-7.2596582 6.88853516 -7.2596582 6.88853516 -6.18554688 6.90234375 C-4.45688475 6.92586296 -2.72839855 6.96173287 -1 7 C-0.67 4.69 -0.34 2.38 0 0 Z " fill="#99A9B4" transform="translate(46,137)"/>
<path d="M0 0 C3.89624082 0.27183075 5.75843321 0.81094773 8.875 3.25 C11 6 11 6 11.3125 8.8125 C11.1578125 9.8953125 11.1578125 9.8953125 11 11 C5.99067246 14.00559652 2.67276511 14.29341888 -3 14 C-2.88512252 12.41590006 -2.75765492 10.83271037 -2.625 9.25 C-2.55539063 8.36828125 -2.48578125 7.4865625 -2.4140625 6.578125 C-2.00149945 4.00933618 -1.28839043 2.24158985 0 0 Z " fill="#2E3236" transform="translate(49,132)"/>
</svg>
